<?xml version="1.0" encoding="UTF-8" standalone="no"?><!DOCTYPE svg PUBLIC "-//W3C//DTD SVG 1.1//EN" "http://www.w3.org/Graphics/SVG/1.1/DTD/svg11.dtd"><svg width="100%" height="100%" viewBox="0 0 360 55" version="1.1" xmlns="http://www.w3.org/2000/svg" xmlns:xlink="http://www.w3.org/1999/xlink" xml:space="preserve" xmlns:serif="http://www.serif.com/" style="fill-rule:evenodd;clip-rule:evenodd;stroke-linejoin:round;stroke-miterlimit:2;"><g id="light_blue"><rect x="118.799" y="7.886" width="9.91" height="10.084" style="fill:#7a7ae6;"/><rect x="138.701" y="16.196" width="9.992" height="9.98" style="fill:#7a7ae6;"/><rect x="178.741" y="36.157" width="9.992" height="9.98" style="fill:#7a7ae6;"/><rect x="178.741" y="36.157" width="9.992" height="9.98" style="fill:#7a7ae6;"/><rect x="178.741" y="36.157" width="9.992" height="9.98" style="fill:#7a7ae6;"/><rect x="188.733" y="46.137" width="9.992" height="9.98" style="fill:#7a7ae6;"/><rect x="218.796" y="26.177" width="9.992" height="9.98" style="fill:#7a7ae6;"/><rect x="258.786" y="26.177" width="9.992" height="9.98" style="fill:#7a7ae6;"/><rect x="268.778" y="26.177" width="9.992" height="9.98" style="fill:#7a7ae6;"/><rect x="308.82" y="36.157" width="9.925" height="9.98" style="fill:#7a7ae6;"/><rect x="298.828" y="16.196" width="9.992" height="9.98" style="fill:#7a7ae6;"/><rect x="328.737" y="46.137" width="9.992" height="9.98" style="fill:#7a7ae6;"/><rect x="328.737" y="46.137" width="9.992" height="10.045" style="fill:#7a7ae6;"/><rect x="328.601" y="16.196" width="9.992" height="9.98" style="fill:#7a7ae6;"/><rect x="208.804" y="16.196" width="9.992" height="9.98" style="fill:#7a7ae6;"/><rect x="237.459" y="1.683" width="9.992" height="9.98" style="fill:#7a7ae6;"/><rect x="128.709" y="36.261" width="9.992" height="9.98" style="fill:#7a7ae6;"/><rect x="78.742" y="26.177" width="9.992" height="9.98" style="fill:#7a7ae6;"/><rect x="88.734" y="36.157" width="12.076" height="10.045" style="fill:#7a7ae6;"/><rect x="45.481" y="11.174" width="10.101" height="10.045" style="fill:#7a7ae6;"/><rect x="58.732" y="36.157" width="9.992" height="9.98" style="fill:#7a7ae6;"/><rect x="-5.414" y="36.157" width="14.125" height="9.98" style="fill:#7a7ae6;"/><rect x="35.489" y="11.206" width="9.992" height="9.98" style="fill:#7a7ae6;"/></g><g id="lighter-blue"><rect x="118.799" y="36.261" width="9.992" height="9.98" style="fill:#a1a1ff;"/><rect x="108.807" y="26.281" width="9.992" height="9.876" style="fill:#a1a1ff;"/><rect x="148.32" y="26.281" width="9.992" height="9.98" style="fill:#a1a1ff;"/><rect x="98.815" y="46.202" width="9.992" height="9.98" style="fill:#a1a1ff;"/><rect x="45.481" y="21.187" width="9.992" height="9.98" style="fill:#a1a1ff;"/><rect x="3.453" y="3.66" width="9.992" height="9.941" style="fill:#a1a1ff;"/><rect x="278.792" y="46.202" width="9.825" height="9.98" style="fill:#a1a1ff;"/><rect x="258.829" y="46.202" width="9.971" height="10.045" style="fill:#a1a1ff;"/><rect x="338.729" y="46.202" width="9.971" height="10.045" style="fill:#a1a1ff;"/></g><g id="blinkers"><rect x="18.741" y="46.202" width="9.992" height="9.98" style="fill:#7a7ae6;"/><rect x="118.799" y="46.241" width="9.992" height="10.053" style="fill:#f3db95;"/><rect x="268.8" y="36.157" width="9.971" height="10.045" style="fill:#a1a1ff;"/><rect x="318.766" y="46.137" width="9.971" height="10.045" style="fill:#a1a1ff;"/></g><g id="yellow-overlay"><rect x="175.222" y="13.42" width="9.992" height="10.424" style="fill:#f3db95;"/></g><path d="M38.494,46.137l9.992,0l0,10.046l10.164,0l0,0.249l-64.064,0l0,-0.249l33.916,0l0,-19.512l9.992,0l0,9.466Zm50.24,10.046l0.089,0l0,0.249l-19.92,0l0,-0.249l9.839,0l0,-9.981l9.992,0l0,9.981Zm119.933,0.249l-69.884,0l0,-0.199l-9.992,0l0,0.199l-29.976,0l0,-0.249l99.86,0l0,-9.942l9.992,0l0,10.191Zm9.992,0l0,-0.249l50.141,0l0,-9.981l9.97,0l0,-10.045l9.847,0l0,10.045l-9.825,0.015l0,9.966l9.825,0l0,0.249l-69.958,0Zm100.107,0l-19.941,0l0,-0.249l19.941,0l0,0.249Zm19.99,0l-10.019,0l0,-0.249l10.02,0l-0.001,0.249Zm23.667,0l-13.674,0l0,-0.249l13.674,0l0,0.249Zm-63.647,-0.338l-10.159,0l0,-9.892l10.159,0l0,9.892Zm-80.117,-9.853l-9.992,0l0,-9.98l9.992,0l0,9.98Zm-139.917,-0.104l-9.992,0l0,-9.98l9.992,0l0,9.98Z" style="fill:#f3db95;"/></svg>