<?xml version="1.0" encoding="UTF-8" standalone="no"?><!DOCTYPE svg PUBLIC "-//W3C//DTD SVG 1.1//EN" "http://www.w3.org/Graphics/SVG/1.1/DTD/svg11.dtd"><svg width="100%" height="100%" viewBox="0 0 360 120" version="1.1" xmlns="http://www.w3.org/2000/svg" xmlns:xlink="http://www.w3.org/1999/xlink" xml:space="preserve" xmlns:serif="http://www.serif.com/" style="fill-rule:evenodd;clip-rule:evenodd;stroke-linejoin:round;stroke-miterlimit:2;"><path d="M49.674,44.455l0,10.045l30.256,0l0,-9.98l9.992,0l0,9.98l109.941,0l0,-9.941l9.992,0l0,9.941l60.133,0l0,-9.98l9.971,0l0,-10.046l9.846,0l0,10.046l-9.825,0.014l0,9.966l9.825,0l0,-9.98l10.159,0l0,9.98l63.647,0l0,44.191l-367.837,0l0,-44.191l33.916,0l0,-19.512l9.992,0l0,9.467l9.992,0Zm170.173,0.104l-9.992,0l0,-9.98l9.992,0l0,9.98Zm-139.917,-0.104l-9.992,0l0,-9.981l9.992,0l0,9.981Z" style="fill:#f3db95;"/><g id="light_blue"><rect x="29.69" y="54.5" width="10.223" height="9.915" style="fill:#7a7ae6;"/><rect x="19.929" y="64.415" width="9.992" height="9.98" style="fill:#7a7ae6;"/><rect x="119.987" y="6.203" width="9.91" height="10.084" style="fill:#7a7ae6;"/><rect x="139.889" y="14.514" width="9.992" height="9.98" style="fill:#7a7ae6;"/><rect x="179.929" y="34.474" width="9.992" height="9.98" style="fill:#7a7ae6;"/><rect x="179.929" y="34.474" width="9.992" height="9.98" style="fill:#7a7ae6;"/><rect x="179.929" y="34.474" width="9.992" height="9.98" style="fill:#7a7ae6;"/><rect x="189.921" y="44.455" width="9.992" height="9.98" style="fill:#7a7ae6;"/><rect x="219.984" y="24.494" width="9.992" height="9.98" style="fill:#7a7ae6;"/><rect x="259.975" y="24.494" width="9.992" height="9.98" style="fill:#7a7ae6;"/><rect x="269.967" y="24.494" width="9.992" height="9.98" style="fill:#7a7ae6;"/><rect x="310.009" y="34.474" width="9.925" height="9.98" style="fill:#7a7ae6;"/><rect x="300.017" y="14.514" width="9.992" height="9.98" style="fill:#7a7ae6;"/><rect x="329.925" y="44.455" width="9.992" height="9.98" style="fill:#7a7ae6;"/><rect x="329.925" y="44.455" width="9.992" height="10.045" style="fill:#7a7ae6;"/><rect x="339.917" y="54.5" width="9.992" height="10.045" style="fill:#7a7ae6;"/><rect x="329.789" y="14.514" width="9.992" height="9.98" style="fill:#7a7ae6;"/><rect x="209.992" y="14.514" width="9.992" height="9.98" style="fill:#7a7ae6;"/><rect x="238.647" y="0" width="9.992" height="9.98" style="fill:#7a7ae6;"/><rect x="129.897" y="34.579" width="9.992" height="9.98" style="fill:#7a7ae6;"/><rect x="189.921" y="54.435" width="9.992" height="9.98" style="fill:#7a7ae6;"/><rect x="269.821" y="54.5" width="10.159" height="9.98" style="fill:#7a7ae6;"/><rect x="279.813" y="64.415" width="9.992" height="9.98" style="fill:#7a7ae6;"/><rect x="79.93" y="24.494" width="9.992" height="9.98" style="fill:#7a7ae6;"/><rect x="89.922" y="34.474" width="12.076" height="10.045" style="fill:#7a7ae6;"/><rect x="46.669" y="9.491" width="10.101" height="10.045" style="fill:#7a7ae6;"/><rect x="59.92" y="34.474" width="9.992" height="9.98" style="fill:#7a7ae6;"/><rect x="-4.226" y="34.474" width="14.125" height="9.98" style="fill:#7a7ae6;"/><rect x="36.677" y="9.524" width="9.992" height="9.98" style="fill:#7a7ae6;"/><rect x="169.937" y="64.415" width="9.992" height="10.11" style="fill:#7a7ae6;"/></g><g id="lighter-blue"><rect x="119.987" y="34.579" width="9.992" height="9.98" style="fill:#a1a1ff;"/><rect x="179.929" y="64.392" width="9.992" height="10.069" style="fill:#a1a1ff;"/><rect x="229.887" y="54.5" width="9.992" height="9.98" style="fill:#a1a1ff;"/><rect x="229.887" y="64.48" width="9.992" height="9.98" style="fill:#a1a1ff;"/><rect x="109.995" y="24.598" width="9.992" height="9.876" style="fill:#a1a1ff;"/><rect x="149.508" y="24.598" width="9.992" height="9.98" style="fill:#a1a1ff;"/><rect x="100.003" y="44.52" width="9.992" height="9.98" style="fill:#a1a1ff;"/><rect x="90.011" y="64.48" width="9.992" height="9.98" style="fill:#a1a1ff;"/><rect x="49.846" y="54.5" width="9.992" height="9.98" style="fill:#a1a1ff;"/><rect x="49.674" y="54.5" width="9.992" height="9.98" style="fill:#a1a1ff;"/><rect x="29.69" y="64.415" width="11.688" height="10.045" style="fill:#a1a1ff;"/><rect x="-4.226" y="54.5" width="14.147" height="9.98" style="fill:#a1a1ff;"/><rect x="46.669" y="19.504" width="9.992" height="9.98" style="fill:#a1a1ff;"/><rect x="4.641" y="1.978" width="9.992" height="9.941" style="fill:#a1a1ff;"/><rect x="109.995" y="54.5" width="9.992" height="9.98" style="fill:#a1a1ff;"/><rect x="119.987" y="64.415" width="9.992" height="10.045" style="fill:#a1a1ff;"/><rect x="279.98" y="44.52" width="9.825" height="9.98" style="fill:#a1a1ff;"/><rect x="260.017" y="44.52" width="9.971" height="10.045" style="fill:#a1a1ff;"/><rect x="339.917" y="44.52" width="9.971" height="10.045" style="fill:#a1a1ff;"/><rect x="309.984" y="54.5" width="9.971" height="10.045" style="fill:#a1a1ff;"/><rect x="300.013" y="64.611" width="9.971" height="10.045" style="fill:#a1a1ff;"/><rect x="279.98" y="54.5" width="9.825" height="9.98" style="fill:#a1a1ff;"/><rect x="269.988" y="64.48" width="9.992" height="9.98" style="fill:#a1a1ff;"/></g><g id="blinkers"><rect x="19.929" y="44.52" width="9.992" height="9.98" style="fill:#7a7ae6;"/><rect x="149.953" y="64.415" width="9.992" height="10.11" style="fill:#fff;"/><rect x="239.879" y="54.5" width="9.992" height="9.98" style="fill:#a1a1ff;"/><rect x="90.011" y="54.5" width="9.992" height="9.98" style="fill:#a1a1ff;"/><rect x="39.854" y="64.415" width="9.992" height="10.045" style="fill:#a1a1ff;"/><rect x="119.987" y="44.559" width="9.992" height="10.053" style="fill:#f3db95;"/><rect x="179.929" y="54.435" width="9.992" height="9.98" style="fill:#7a7ae6;"/><rect x="269.988" y="34.474" width="9.971" height="10.045" style="fill:#a1a1ff;"/><rect x="319.954" y="44.455" width="9.971" height="10.045" style="fill:#a1a1ff;"/><rect x="349.937" y="54.5" width="12.769" height="10.033" style="fill:#a1a1ff;"/></g><path id="bottom-layer" d="M70.091,64.531l-10.253,0l0,9.98l40.165,0l0,-9.98l29.976,0l0,-9.981l9.992,0l0,9.981l-9.992,0l0,9.98l59.942,0l0,-10.054l9.992,0l0,10.054l19.934,0l0,-10.054l9.992,0l0,10.054l10.058,0l0,-9.98l9.992,0l0,9.98l29.913,0l0,-10.119l9.992,0l0,10.119l30.16,0l0,-9.793l0,-10.218l9.971,0l0,19.922l20.012,0.089l0,-9.978l13.046,-0.076l4.521,10.054l0,54.124l-373.389,0l0,-54.124l5.814,-10.054l9.992,0l0,10.054l39.925,0l0,-9.98l9.992,0l0,-10.054l10.253,0l0,10.054Zm279.846,0.015l-10.02,0l0.028,-10.069l9.992,0l0,10.069Zm-249.934,-0.089l-9.992,0l0,-9.98l9.992,0l0,9.98Zm119.844,-0.065l-9.992,0l0,-9.98l9.992,0l0,9.98Zm80.166,0l-10.208,0l0,-9.98l10.208,0l0,9.98Z" style="fill:#fff;"/><g id="yellow-overlay"><rect x="141.981" y="94.18" width="9.992" height="10.045" style="fill:#f3db95;"/><rect x="29.69" y="94.18" width="9.992" height="10.045" style="fill:#f3db95;"/><rect x="39.682" y="104.225" width="9.992" height="10.045" style="fill:#f3db95;"/><rect x="299.992" y="94.245" width="9.992" height="9.98" style="fill:#f3db95;"/><rect x="176.41" y="11.737" width="9.992" height="10.424" style="fill:#f3db95;"/><rect x="199.913" y="74.396" width="9.992" height="9.98" style="fill:#7a7ae6;"/></g></svg>