<?xml version="1.0" encoding="UTF-8" standalone="no"?>
<!DOCTYPE svg PUBLIC "-//W3C//DTD SVG 1.1//EN" "http://www.w3.org/Graphics/SVG/1.1/DTD/svg11.dtd">
<svg width="100%" height="100%" viewBox="0 0 800 800" version="1.1" xmlns="http://www.w3.org/2000/svg" xmlns:xlink="http://www.w3.org/1999/xlink" xml:space="preserve" xmlns:serif="http://www.serif.com/" style="fill-rule:evenodd;clip-rule:evenodd;stroke-linecap:round;stroke-linejoin:round;stroke-miterlimit:1.5;">
    <g transform="matrix(1.00661,0,0,0.987826,-139.495,-78.5018)">
        <ellipse cx="535.715" cy="473.965" rx="346.657" ry="341.57" style="fill:url(#_Radial1);stroke:black;stroke-width:15.04px;"/>
    </g>
    <g transform="matrix(1.03281,0,0,1,-20.1456,0)">
        <path d="M68.195,390.509C154.685,404.81 327.664,433.411 440.288,429.753C587.788,424.962 691.974,390.365 744.067,373.067" style="fill:none;stroke:black;stroke-width:9.84px;"/>
    </g>
    <g transform="matrix(1.00631,0,0,1,-8.76543,-62.5116)">
        <path d="M68.195,390.509C157.051,402.428 334.763,426.267 447.387,422.609C594.888,417.818 694.34,387.984 744.067,373.067" style="fill:none;stroke:black;stroke-width:7.48px;"/>
    </g>
    <g transform="matrix(0.821884,0,0,0.571404,63.3466,-28.1977)">
        <path d="M68.195,390.509C157.051,402.428 334.763,426.267 447.387,422.609C594.888,417.818 694.34,387.984 744.067,373.067" style="fill:none;stroke:black;stroke-width:7.06px;"/>
    </g>
    <g transform="matrix(0.965024,0,0,1.09616,16.748,93.3922)">
        <path d="M68.195,390.509C157.051,402.428 334.763,426.267 447.387,422.609C594.888,417.818 694.34,387.984 744.067,373.067" style="fill:none;stroke:black;stroke-width:4.84px;"/>
    </g>
    <path d="M290.784,354.388C282.879,252.122 297.416,153.886 337.076,60.074" style="fill:none;stroke:black;stroke-width:5px;"/>
    <g transform="matrix(-1,0,0,1,788.316,-4.16744)">
        <path d="M290.784,354.388C282.879,252.122 297.416,153.886 337.076,60.074" style="fill:none;stroke:black;stroke-width:5px;"/>
    </g>
    <g transform="matrix(-1,2.00455e-17,2.00455e-17,-0.836316,854.595,757.821)">
        <path d="M290.784,354.388C282.879,252.122 297.416,153.886 337.076,60.074" style="fill:none;stroke:black;stroke-width:5.42px;"/>
    </g>
    <g transform="matrix(1,2.00455e-17,-2.00455e-17,-0.836316,37.1813,768.054)">
        <path d="M290.784,354.388C282.879,252.122 297.416,153.886 337.076,60.074" style="fill:none;stroke:black;stroke-width:5.42px;"/>
    </g>
    <g transform="matrix(-0.994602,0.103764,0.0697604,0.668672,960.348,56.3649)">
        <path d="M290.784,354.388C282.879,252.122 297.416,153.886 337.076,60.074" style="fill:none;stroke:black;stroke-width:5.87px;"/>
    </g>
    <g transform="matrix(1.02816,0,0,1.25343,-16.3872,-57.1593)">
        <path d="M68.195,390.509C157.051,402.428 334.763,426.267 447.387,422.609C594.888,417.818 694.34,387.984 744.067,373.067" style="fill:none;stroke:black;stroke-width:6.54px;"/>
    </g>
    <g transform="matrix(1,0,0,1,24.7092,-13.0814)">
        <g transform="matrix(1.10844,0,0.207679,1,-136.374,-24.2486)">
            <ellipse cx="556.613" cy="299.525" rx="85.953" ry="92.651" style="fill:url(#_Linear2);"/>
            <clipPath id="_clip3">
                <ellipse cx="556.613" cy="299.525" rx="85.953" ry="92.651"/>
            </clipPath>
            <g clip-path="url(#_clip3)">
                <g transform="matrix(0.991832,-0.10558,-0.180524,0.914522,70.2847,102.333)">
                    <path d="M518.281,277.667C518.027,269.475 521.66,257.886 529.331,253.662C546.438,244.244 587.127,238.559 596.195,220.754C600.034,213.217 626.941,260.434 630.555,282.036C634.169,303.638 629.656,367.683 617.881,350.366C607.313,334.824 547.455,314.931 530.855,302.814C523.285,297.289 518.535,285.859 518.281,277.667Z" style="fill:url(#_Linear4);stroke:black;stroke-width:5.28px;"/>
                </g>
            </g>
            <ellipse cx="556.613" cy="299.525" rx="85.953" ry="92.651" style="fill:none;stroke:black;stroke-width:8.56px;"/>
        </g>
        <g transform="matrix(0.288247,0,0.0234172,0.255647,376.633,200.533)">
            <ellipse cx="556.613" cy="299.525" rx="85.953" ry="92.651" style="fill:rgb(19,19,19);stroke:black;stroke-width:17.54px;"/>
        </g>
    </g>
    <defs>
        <radialGradient id="_Radial1" cx="0" cy="0" r="1" gradientUnits="userSpaceOnUse" gradientTransform="matrix(1085.48,0.314876,-0.309,1106.12,161.535,481.341)"><stop offset="0" style="stop-color:black;stop-opacity:1"/><stop offset="0.62" style="stop-color:rgb(34,34,34);stop-opacity:1"/><stop offset="0.82" style="stop-color:rgb(116,116,116);stop-opacity:1"/><stop offset="1" style="stop-color:rgb(204,204,204);stop-opacity:1"/></radialGradient>
        <linearGradient id="_Linear2" x1="0" y1="0" x2="1" y2="0" gradientUnits="userSpaceOnUse" gradientTransform="matrix(-176.169,-2.39141e-14,36.5866,-195.274,636.827,291.709)"><stop offset="0" style="stop-color:black;stop-opacity:1"/><stop offset="1" style="stop-color:rgb(31,31,31);stop-opacity:1"/></linearGradient>
        <linearGradient id="_Linear4" x1="0" y1="0" x2="1" y2="0" gradientUnits="userSpaceOnUse" gradientTransform="matrix(-85.8969,-14.2663,2.74072,-100.726,593.824,287.646)"><stop offset="0" style="stop-color:black;stop-opacity:1"/><stop offset="1" style="stop-color:rgb(19,19,19);stop-opacity:1"/></linearGradient>
    </defs>
</svg>
