<?xml version="1.0" encoding="UTF-8" standalone="no"?><!DOCTYPE svg PUBLIC "-//W3C//DTD SVG 1.1//EN" "http://www.w3.org/Graphics/SVG/1.1/DTD/svg11.dtd"><svg width="100%" height="100%" viewBox="0 0 1080 1080" version="1.1" xmlns="http://www.w3.org/2000/svg" xmlns:xlink="http://www.w3.org/1999/xlink" xml:space="preserve" xmlns:serif="http://www.serif.com/" style="fill-rule:evenodd;clip-rule:evenodd;stroke-linejoin:round;stroke-miterlimit:2;"><rect x="-37.059" y="-35.901" width="1154.12" height="1151.8" style="fill:#b0333d;"/><path d="M910.406,335.733c-38.254,-65.545 -90.144,-117.436 -155.682,-155.687c-65.548,-38.252 -137.107,-57.373 -214.728,-57.373c-77.611,0 -149.193,19.127 -214.728,57.373c-65.544,38.249 -117.432,90.142 -155.686,155.687c-38.249,65.542 -57.374,137.115 -57.374,214.716c0,93.216 27.197,177.039 81.603,251.49c54.4,74.456 124.678,125.977 210.826,154.568c10.028,1.861 17.451,0.552 22.278,-3.894c4.828,-4.452 7.24,-10.028 7.24,-16.704c0,-1.114 -0.096,-11.136 -0.281,-30.078c-0.191,-18.942 -0.281,-35.467 -0.281,-49.566l-12.812,2.216c-8.169,1.497 -18.474,2.131 -30.915,1.951c-12.435,-0.173 -25.345,-1.477 -38.711,-3.9c-13.371,-2.401 -25.809,-7.971 -37.321,-16.698c-11.507,-8.727 -19.676,-20.149 -24.504,-34.251l-5.57,-12.818c-3.713,-8.533 -9.558,-18.013 -17.543,-28.404c-7.986,-10.4 -16.061,-17.451 -24.229,-21.164l-3.9,-2.791c-2.599,-1.856 -5.01,-4.094 -7.24,-6.69c-2.228,-2.597 -3.896,-5.196 -5.01,-7.798c-1.116,-2.605 -0.191,-4.741 2.784,-6.417c2.975,-1.676 8.352,-2.489 16.154,-2.489l11.136,1.664c7.427,1.488 16.614,5.935 27.573,13.366c10.952,7.425 19.956,17.078 27.012,28.956c8.546,15.229 18.841,26.833 30.915,34.819c12.065,7.985 24.229,11.971 36.481,11.971c12.252,0 22.834,-0.929 31.75,-2.777c8.906,-1.857 17.262,-4.649 25.064,-8.359c3.342,-24.891 12.441,-44.012 27.29,-57.378c-21.164,-2.224 -40.192,-5.574 -57.093,-10.028c-16.891,-4.46 -34.346,-11.698 -52.354,-21.734c-18.017,-10.022 -32.963,-22.467 -44.842,-37.314c-11.882,-14.854 -21.633,-34.356 -29.239,-58.487c-7.611,-24.141 -11.417,-51.989 -11.417,-83.552c0,-44.94 14.671,-83.183 44.007,-114.749c-13.742,-33.787 -12.445,-71.663 3.896,-113.624c10.77,-3.346 26.74,-0.835 47.904,7.517c21.168,8.356 36.666,15.514 46.511,21.449c9.844,5.933 17.732,10.961 23.675,15.038c34.541,-9.651 70.187,-14.478 106.947,-14.478c36.76,0 72.414,4.827 106.957,14.478l21.166,-13.362c14.474,-8.916 31.567,-17.087 51.236,-24.514c19.682,-7.423 34.731,-9.468 45.134,-6.122c16.704,41.963 18.192,79.837 4.446,113.624c29.334,31.566 44.011,69.819 44.011,114.749c0,31.563 -3.819,59.498 -11.418,83.825c-7.609,24.33 -17.444,43.812 -29.509,58.487c-12.078,14.674 -27.12,27.021 -45.127,37.041c-18.011,10.028 -35.472,17.266 -52.364,21.726c-16.899,4.46 -35.927,7.812 -57.091,10.04c19.303,16.704 28.956,43.071 28.956,79.089l0,117.52c0,6.676 2.322,12.25 6.969,16.704c4.642,4.446 11.971,5.756 21.999,3.892c86.16,-28.587 156.438,-80.11 210.836,-154.566c54.393,-74.45 81.599,-158.273 81.599,-251.49c-0.02,-77.591 -19.155,-149.158 -57.386,-214.7Z" style="fill-rule:nonzero;"/></svg>