<?xml version="1.0" encoding="UTF-8" standalone="no"?><!DOCTYPE svg PUBLIC "-//W3C//DTD SVG 1.1//EN" "http://www.w3.org/Graphics/SVG/1.1/DTD/svg11.dtd"><svg width="100%" height="100%" viewBox="0 0 1080 1080" version="1.1" xmlns="http://www.w3.org/2000/svg" xmlns:xlink="http://www.w3.org/1999/xlink" xml:space="preserve" xmlns:serif="http://www.serif.com/" style="fill-rule:evenodd;clip-rule:evenodd;stroke-linejoin:round;stroke-miterlimit:2;"><rect x="-37.059" y="-35.901" width="1154.12" height="1151.8" style="fill:#b0333d;"/><path id="LinkedIn" d="M1019.12,643.56l0,354.266l-205.381,0l0,-330.539c0,-83.034 -29.706,-139.702 -104.047,-139.702c-56.75,0 -90.522,38.19 -105.38,75.132c-5.418,13.207 -6.813,31.589 -6.813,50.076l0,345.033l-205.449,0c0,0 2.766,-559.825 0,-617.827l205.429,0l0,87.575c-0.416,0.655 -0.958,1.361 -1.35,1.996l1.35,0l0,-1.996c27.294,-42.037 76.037,-102.089 185.139,-102.089c135.17,-0.002 236.502,88.303 236.502,278.075Zm-841.98,-561.384c-70.284,0 -116.256,46.101 -116.256,106.725c0,59.303 44.642,106.803 113.529,106.803l1.373,0c71.645,0 116.202,-47.491 116.202,-106.803c-1.35,-60.624 -44.557,-106.725 -114.848,-106.725Zm-104.054,915.65l205.372,0l0,-617.827l-205.372,0l0,617.827Z" style="fill-rule:nonzero;"/></svg>